# xmcd
#
# Track frame offsets:
#	150
#	4702
#	21217
#	42002
#	57075
#	81740
#	104472
#	123157
#	145312
#	171772
#
# Disc length: 2355 seconds
#
# Revision: 0
# Processed by: cddbd v1.5.1PL2 Copyright (c) Steve Scherf et al.
# Submitted via: dBpowerAMP V4.0
#
DISCID=7e09310a
DTITLE=Jason Ricci and New Blood - Blood On the Road
DYEAR=1900
DGENRE=Blues
TTITLE0=01 Snowflakes and Horses
TTITLE1=02 Mellow Down Easy
TTITLE2=03 Down at the Juke
TTITLE3=04 Blues Penitentiary
TTITLE4=05 Marmoset - Bakedd Potato
TTITLE5=06 Roll All Day
TTITLE6=07 My Heads a Bad Neighborhood
TTITLE7=08 The World Just Wrong
TTITLE8=09 The One Least In Love
TTITLE9=10 Walter's World
EXTD=
EXTT0=
EXTT1=
EXTT2=
EXTT3=
EXTT4=
EXTT5=
EXTT6=
EXTT7=
EXTT8=
EXTT9=
PLAYORDER=
